<?xml version="1.0" standalone="no"?><!DOCTYPE svg PUBLIC "-//W3C//DTD SVG 1.1//EN" "http://www.w3.org/Graphics/SVG/1.1/DTD/svg11.dtd"><svg t="1542418978451" class="icon" style="" viewBox="0 0 1024 1024" version="1.1" xmlns="http://www.w3.org/2000/svg" p-id="1825" xmlns:xlink="http://www.w3.org/1999/xlink" width="200" height="200"><defs><style type="text/css"></style></defs><path d="M571.917136 591.599919c-13.290701 12.688997-22.624277 20.612457-28.852118 25.63689 3.042289-16.45067 10.968819-49.064462 30.05962-113.289206 19.006889-63.622016 20.642133-74.732052 20.642133-80.187297 0-9.531074-3.961218-17.972327-10.880815-23.801079-15.533788-12.80463-42.922578-10.278087-75.996858 8.441253-18.431791 10.336416-38.010709 27.217898-59.886949 51.219545l-11.400654 12.688997 37.841863 29.169343 9.673313-9.56075c10.536984-10.219759 17.683754-16.881482 22.452361-21.331841-28.884864 95.060029-42.951231 154.143683-42.951231 180.585915 0 12.002358 3.474125 21.965268 10.509355 29.514197 7.091512 7.752568 17.052374 11.799744 28.448936 11.799744 11.168364 0 23.943318-4.305049 39.477107-13.118785 14.010085-7.952112 35.027771-25.322735 64.424288-53.000098l11.94403-11.426237-34.392298-33.505092L571.917136 591.599919 571.917136 591.599919zM932.001191 334.212828c-22.940478-54.320163-55.958476-103.184057-97.729835-144.92881-41.831734-41.889039-90.610694-74.819033-144.730289-97.844445-112.483864-47.543829-242.427378-47.543829-354.971617 0-54.147224 23.025413-102.83818 55.95643-144.726196 97.844445-41.831734 41.830711-74.849732 90.752934-97.702206 144.92881-23.716144 56.414871-35.83209 116.074645-35.83209 177.744193 0 61.61122 12.059664 121.269971 35.748179 177.629583 22.880103 54.233182 55.898101 103.039771 97.725742 145.043421 41.775452 41.829687 90.49506 74.816986 144.730289 97.786117 56.329936 23.857361 115.989711 35.801391 177.455621 35.801391 61.526285 0 121.157407-11.94403 177.515996-35.859719 54.235229-22.968108 102.953813-55.898101 144.730289-97.727789 41.827641-41.945321 74.789357-90.810239 97.698113-145.07412 23.771403-56.329936 35.775808-115.989711 35.775808-177.599907C967.745277 450.287473 955.744965 390.627698 932.001191 334.212828L932.001191 334.212828zM909.692093 511.958044c0 219.545228-178.346921 398.122393-397.661905 398.122393-219.259726 0-397.606647-178.577165-397.606647-398.122393 0-219.633233 178.346921-398.180721 397.606647-398.180721C731.345172 113.7763 909.692093 292.324812 909.692093 511.958044L909.692093 511.958044zM560.061111 276.017404c-8.614192 9.474792-13.034874 20.957311-13.034874 34.222429 0 10.909467 3.529383 20.411889 10.509355 27.79095 7.091512 7.492648 16.276708 11.340279 26.75741 11.340279 8.469905 0 21.073968-2.583848 32.613792-15.417131 9.014304-9.702989 13.550621-21.388123 13.550621-34.394345 0-10.651594-3.673669-19.9821-10.68127-27.217898C604.447017 256.552074 576.54248 258.245645 560.061111 276.017404L560.061111 276.017404z" p-id="1826"></path></svg>