<?xml version="1.0" standalone="no"?><!DOCTYPE svg PUBLIC "-//W3C//DTD SVG 1.1//EN" "http://www.w3.org/Graphics/SVG/1.1/DTD/svg11.dtd"><svg t="1542420585214" class="icon" style="" viewBox="0 0 1024 1024" version="1.1" xmlns="http://www.w3.org/2000/svg" p-id="4078" xmlns:xlink="http://www.w3.org/1999/xlink" width="200" height="200"><defs><style type="text/css"></style></defs><path d="M768 416.914286c43.885714-43.885714 43.885714-109.714286 0-153.6-43.885714-43.885714-117.028571-43.885714-160.914286-7.314286s-43.885714 109.714286 0 153.6 117.028571 51.2 160.914286 7.314286zM658.285714 365.714286c-14.628571-14.628571-14.628571-36.571429 0-51.2 14.628571-14.628571 36.571429-14.628571 51.2 0 14.628571 14.628571 14.628571 36.571429 0 51.2s-36.571429 14.628571-51.2 0z m-512 563.2c-14.628571 14.628571-36.571429 14.628571-51.2 0s-14.628571-36.571429 0-51.2l387.657143-387.657143-14.628571-21.942857c-58.514286-102.4-43.885714-226.742857 36.571428-314.514286 102.4-102.4 263.314286-102.4 358.4 0s102.4 263.314286 0 358.4c-80.457143 87.771429-204.8 102.4-307.2 43.885714l-21.942857-14.628571-160.914286 160.914286 80.457143 80.457142c14.628571 14.628571 36.571429 14.628571 51.2 0 14.628571-14.628571 14.628571-36.571429 0-51.2l-21.942857-29.257142 65.828572-65.828572c124.342857 58.514286 277.942857 36.571429 373.028571-65.828571 131.657143-131.657143 131.657143-336.457143 0-468.114286S585.142857-21.942857 453.485714 102.4c-95.085714 102.4-124.342857 248.685714-65.828571 373.028571L36.571429 826.514286c-43.885714 43.885714-43.885714 109.714286 0 153.6 43.885714 43.885714 109.714286 43.885714 153.6 0l80.457142-80.457143-51.2-43.885714-73.142857 73.142857z m307.2-51.2l-131.657143-131.657143-51.2 58.514286 131.657143 131.657142c14.628571 14.628571 36.571429 14.628571 51.2 0 14.628571-21.942857 14.628571-43.885714 0-58.514285z" p-id="4079"></path></svg>