<?xml version="1.0" standalone="no"?><!DOCTYPE svg PUBLIC "-//W3C//DTD SVG 1.1//EN" "http://www.w3.org/Graphics/SVG/1.1/DTD/svg11.dtd"><svg t="1542418859313" class="icon" style="" viewBox="0 0 1024 1024" version="1.1" xmlns="http://www.w3.org/2000/svg" p-id="1171" xmlns:xlink="http://www.w3.org/1999/xlink" width="200" height="200"><defs><style type="text/css"></style></defs><path d="M674.65237 602.048603c-6.270748-6.139837-14.728014-9.547527-22.909467-10.231063-16.906537-1.363076-33.948983-7.770731-46.9032-20.452133-12.951219-12.81731-19.908502-29.317922-20.725948-46.087153-0.406724-8.181453-4.090227-16.225999-10.359976-22.498146-13.910569-13.772063-36.68193-13.772063-50.591499 0l-22.225931 21.815209L270.635693 304.112404c0 0-11.178421-9.136805-12.81671-17.454166-1.907107-9.954251-3.545596-22.770961-14.316693-32.043674-19.635687-16.771029-52.494809-42.814772-72.947941-57.132064-8.591575-5.999332-14.589508-4.771765-20.591039 1.228167l-15.679369 15.406954c-6.001331 5.863425-7.364007 11.726449-1.227768 20.180318 14.451202 20.04441 41.043572 52.3603 58.085418 71.587264 9.409021 10.635189 22.498146 12.135172 32.590304 14.044478 8.453668 1.634892 17.724383 12.544495 17.724383 12.544495l224.575738 226.212028-22.225931 21.815209c-14.044478 13.772662-14.044478 35.997594 0 49.770256 6.408255 6.273746 14.589508 9.815345 22.90487 10.227066 17.044844 0.817446 33.956378 7.634824 46.907597 20.314227 12.954217 12.681402 19.362872 29.456029 20.724948 46.086553 0.683537 8.046544 4.091226 16.364905 10.364973 22.500744l143.17053 140.716194c27.955046 27.543326 73.358063 27.543326 101.309112 0l28.499477-28.090754c27.955046-27.543326 27.955046-71.99099 0-99.536314L674.65237 602.048603zM892.412129 277.114708l-134.175629 72.402711-61.082386-36.406716 1.496985-70.084882 138.945395-74.994953c-64.63198-56.722942-164.034385-54.541421-226.07612 6.408655-39.678098 38.99696-54.811638 92.857243-45.67903 143.17053 2.18352 11.862957-0.813448 24.270944-10.905606 34.225195l-93.405071 92.039797 39.136865 37.496577 0.268818-0.272415c12.682401-12.407987 29.593935-19.363272 47.590733-19.363272 17.996798 0 34.904135 6.818777 47.586536 19.363272 6.13584 6.13584 11.043512 13.227032 14.317293 20.997764l45.403017-44.587769c10.230064-10.090559 24.819173-13.497848 37.774389-10.226466 52.356302 13.090525 110.035196-3.40769 151.079168-43.768725C879.864636 368.744383 895.819818 322.383416 892.412129 277.114708zM421.580552 558.819912l0.272415-0.271816L383.809761 520.232275 159.510836 740.444371c-28.772492 28.226662-28.772492 73.903693 0 102.126558 28.768495 28.226662 75.26537 28.226662 104.037263 0l179.579245-176.302067c-7.774729-3.27378-15.138136-8.046544-21.274576-14.182384C395.398304 626.454056 395.398304 584.592438 421.580552 558.819912z" p-id="1172"></path></svg>