<?xml version="1.0" standalone="no"?><!DOCTYPE svg PUBLIC "-//W3C//DTD SVG 1.1//EN" "http://www.w3.org/Graphics/SVG/1.1/DTD/svg11.dtd"><svg t="1542420653234" class="icon" style="" viewBox="0 0 1024 1024" version="1.1" xmlns="http://www.w3.org/2000/svg" p-id="4260" xmlns:xlink="http://www.w3.org/1999/xlink" width="200" height="200"><defs><style type="text/css"></style></defs><path d="M863.418182 698.181818c-13.963636 0-23.272727 9.309091-23.272727 23.272727v186.181819c0 39.563636-25.6 69.818182-69.818182 69.818181H134.981818c-41.890909 0-86.109091-30.254545-86.109091-69.818181V114.036364C48.872727 74.472727 93.090909 46.545455 134.981818 46.545455h635.345455c44.218182 0 69.818182 30.254545 69.818182 69.818181v325.818182c0 13.963636 9.309091 23.272727 23.272727 23.272727s23.272727-9.309091 23.272727-23.272727V116.363636c0-65.163636-46.545455-116.363636-116.363636-116.363636H134.981818C69.818182 0 2.327273 46.545455 2.327273 114.036364V907.636364c0 69.818182 69.818182 116.363636 132.654545 116.363636h635.345455c69.818182 0 116.363636-51.2 116.363636-116.363636v-186.181819c0-13.963636-11.636364-23.272727-23.272727-23.272727z m153.6-260.654545c-9.309091-9.309091-23.272727-9.309091-32.581818 0L512 889.018182c-9.309091 9.309091-9.309091 23.272727 0 32.581818 9.309091 9.309091 23.272727 9.309091 32.581818 0l472.436364-451.490909c6.981818-6.981818 6.981818-23.272727 0-32.581818zM630.690909 302.545455h-372.363636c-13.963636 0-23.272727 9.309091-23.272728 23.272727s9.309091 23.272727 23.272728 23.272727h372.363636c13.963636 0 23.272727-9.309091 23.272727-23.272727s-11.636364-23.272727-23.272727-23.272727z m0 232.727272h-372.363636c-13.963636 0-23.272727 9.309091-23.272728 23.272728s9.309091 23.272727 23.272728 23.272727h372.363636c13.963636 0 23.272727-9.309091 23.272727-23.272727s-11.636364-23.272727-23.272727-23.272728z" fill="#666666" p-id="4261"></path></svg>