<?xml version="1.0" standalone="no"?><!DOCTYPE svg PUBLIC "-//W3C//DTD SVG 1.1//EN" "http://www.w3.org/Graphics/SVG/1.1/DTD/svg11.dtd"><svg t="1542419079467" class="icon" style="" viewBox="0 0 1024 1024" version="1.1" xmlns="http://www.w3.org/2000/svg" p-id="2600" xmlns:xlink="http://www.w3.org/1999/xlink" width="200" height="200"><defs><style type="text/css"></style></defs><path d="M968.412891 132.900571a187.977143 187.977143 0 0 0-133.851428-55.442285c-50.468571 0-98.011429 19.748571-133.705143 55.442285L465.702034 368.054857l0.146286 0.146286-261.412571 261.485714a110.445714 110.445714 0 0 0-32.621715 78.555429c0 29.696 11.556571 57.636571 32.621715 78.701714 20.992 20.992 48.932571 32.548571 78.628571 32.548571 29.696 0 57.636571-11.556571 78.555429-32.548571l443.318857-443.245714-46.957715-47.030857-443.245714 443.245714a44.836571 44.836571 0 0 1-31.670857 12.580571 44.909714 44.909714 0 0 1-31.597714-12.507428 44.617143 44.617143 0 0 1 0-63.341715l499.565714-499.565714-0.146286-0.219428c22.820571-21.211429 52.297143-32.914286 83.675429-32.914286a122.221714 122.221714 0 0 1 122.660571 122.733714c0 32.768-12.726857 63.634286-35.84 86.747429L695.22432 579.584l-3.876571 3.949714-282.331429 282.258286a199.387429 199.387429 0 0 1-141.824 58.733714 199.314286 199.314286 0 0 1-141.897143-58.733714 199.241143 199.241143 0 0 1-58.806857-141.897143c0-53.686857 20.845714-104.082286 58.733714-141.970286L584.266606 122.88l-47.030857-47.030857L78.26432 534.966857A265.508571 265.508571 0 0 0 0.001463 723.894857c0 71.314286 27.794286 138.459429 78.262857 188.854857 50.468571 50.468571 117.467429 78.262857 188.854857 78.262857h0.073143c71.314286 0 138.386286-27.794286 188.854857-78.262857l399.213714-399.140571 4.169143-4.242286 108.982857-108.982857a187.977143 187.977143 0 0 0 55.296-133.778286c0-50.541714-19.675429-98.011429-55.369142-133.705143z" p-id="2601"></path></svg>