<?xml version="1.0" standalone="no"?><!DOCTYPE svg PUBLIC "-//W3C//DTD SVG 1.1//EN" "http://www.w3.org/Graphics/SVG/1.1/DTD/svg11.dtd"><svg t="1607741923497" class="icon" viewBox="0 0 1024 1024" version="1.1" xmlns="http://www.w3.org/2000/svg" p-id="3098" xmlns:xlink="http://www.w3.org/1999/xlink" width="200" height="200"><defs><style type="text/css"></style></defs><path d="M832 128v768H256V128h576m64-64H192v896h704V64z" p-id="3099"></path><path d="M161.3 296.2v-0.2H320v-40H161.3c-35.5 0-64.3 28.7-64.3 64s28.8 64 64.3 64h90v-40h-90v-0.2c-13.3 0-24.1-10.7-24.1-23.8 0-13.1 10.8-23.8 24.1-23.8zM161.3 488.2v-0.2H320v-40H161.3c-35.5 0-64.3 28.7-64.3 64s28.8 64 64.3 64h90v-40h-90v-0.2c-13.3 0-24.1-10.7-24.1-23.8 0-13.1 10.8-23.8 24.1-23.8zM161.3 680.2v-0.2H320v-40H161.3c-35.5 0-64.3 28.7-64.3 64s28.8 64 64.3 64h90v-40h-90v-0.2c-13.3 0-24.1-10.7-24.1-23.8 0-13.1 10.8-23.8 24.1-23.8z" p-id="3100"></path><path d="M320 277m-32 0a32 32 0 1 0 64 0 32 32 0 1 0-64 0Z" p-id="3101"></path><path d="M320 469m-32 0a32 32 0 1 0 64 0 32 32 0 1 0-64 0Z" p-id="3102"></path><path d="M320 662m-32 0a32 32 0 1 0 64 0 32 32 0 1 0-64 0Z" p-id="3103"></path><path d="M384 256h385v40H384zM384 384h385v40H384zM384 512h385v40H384zM384 640h256v40H384z" p-id="3104"></path></svg>