<?xml version="1.0" standalone="no"?><!DOCTYPE svg PUBLIC "-//W3C//DTD SVG 1.1//EN" "http://www.w3.org/Graphics/SVG/1.1/DTD/svg11.dtd"><svg t="1539419028563" class="icon" style="" viewBox="0 0 1024 1024" version="1.1" xmlns="http://www.w3.org/2000/svg" p-id="2392" xmlns:xlink="http://www.w3.org/1999/xlink" width="128" height="128"><defs><style type="text/css"></style></defs><path d="M568.793003 904.924341c-252.682818-5.352185-373.330868-80.176152-353.585358-241.573303 9.169081-74.909261 58.767413-118.899527 129.390662-135.38255 33.79766-7.889674 68.554874-8.84923 100.540041-5.927918 6.119829 0.575733 10.789663 1.172789 13.668328 1.620582l3.923514 0.810291c1.599258 0.405145 5.011009 1.215436 10.022019 2.302932 8.635995 1.85514 18.338162 3.731603 28.957238 5.480125 38.041025 6.269093 76.551166 9.318345 111.734849 7.420559 80.218799-4.349983 121.074518-30.769731 123.164216-87.852592 2.345579-63.714452-47.167459-114.720132-137.621511-153.422183-33.30722-14.244061-69.343842-25.50284-105.465757-34.010895a679.364945 679.364945 0 0 0-35.823387-7.441882 191.911001 191.911001 0 1 1 10.299224-84.824662c11.365396 1.91911 26.7396 4.947039 45.056438 9.254375 40.578515 9.53158 81.199677 22.219029 119.47526 38.595434 119.262026 51.027003 193.254378 127.300964 189.309541 234.98436-4.051454 111.159117-84.952603 163.444203-203.766836 169.883883-42.177773 2.281609-86.573185-1.215436-130.2436-8.422761a604.498331 604.498331 0 0 1-43.862325-8.721289 193.979375 193.979375 0 0 0-6.652915-0.703673c-23.6477-2.174991-49.811567-1.449994-73.352649 4.051454-38.766022 9.041141-59.812262 27.720478-64.098275 62.669604-11.429366 93.396687 58.362268 139.412681 254.815163 145.532509a191.911001 191.911001 0 1 1 14.11612 85.6776zM277.088281 298.528224A106.617223 106.617223 0 1 0 277.088281 85.293778a106.617223 106.617223 0 0 0 0 213.234446z m469.115781 639.703338a106.617223 106.617223 0 1 0 0-213.234446 106.617223 106.617223 0 0 0 0 213.234446z" p-id="2393"></path></svg>