<?xml version="1.0" standalone="no"?><!DOCTYPE svg PUBLIC "-//W3C//DTD SVG 1.1//EN" "http://www.w3.org/Graphics/SVG/1.1/DTD/svg11.dtd"><svg t="1539419349744" class="icon" style="" viewBox="0 0 1024 1024" version="1.1" xmlns="http://www.w3.org/2000/svg" p-id="5716" xmlns:xlink="http://www.w3.org/1999/xlink" width="128" height="128"><defs><style type="text/css"></style></defs><path d="M832 128 192 128C121.344 128 64 185.344 64 256l0 384c0 70.656 57.344 128 128 128l127.808 0 0 65.408c0 24 13.44 45.568 34.944 56.192 8.896 4.288 18.368 6.464 27.776 6.464 13.504 0 26.88-4.416 38.08-12.992L570.048 768 832 768c70.656 0 128-57.344 128-128L960 256C960 185.344 902.656 128 832 128zM896 640c0 35.392-28.608 64-64 64l-272.576-0.064c-7.04 0-13.888 2.304-19.456 6.592l-156.224 122.944 0-97.536c0-17.664-14.336-31.936-31.936-31.936L192 704c-35.392 0-64-28.608-64-64L128 256c0-35.392 28.608-64 64-64l640 0c35.392 0 64 28.608 64 64L896 640zM320 384C284.608 384 256 412.608 256 448s28.608 64 64 64 64-28.608 64-64S355.392 384 320 384zM512 384C476.608 384 448 412.608 448 448s28.608 64 64 64 64-28.608 64-64S547.392 384 512 384zM704 384c-35.392 0-64 28.608-64 64s28.608 64 64 64 64-28.608 64-64S739.392 384 704 384z" p-id="5717"></path></svg>