<?xml version="1.0" standalone="no"?><!DOCTYPE svg PUBLIC "-//W3C//DTD SVG 1.1//EN" "http://www.w3.org/Graphics/SVG/1.1/DTD/svg11.dtd"><svg t="1539419241128" class="icon" style="" viewBox="0 0 1024 1024" version="1.1" xmlns="http://www.w3.org/2000/svg" p-id="4265" xmlns:xlink="http://www.w3.org/1999/xlink" width="128" height="128"><defs><style type="text/css"></style></defs><path d="M832 864H192c-51.2 0-96-44.8-96-96V256c0-51.2 44.8-96 96-96h640c51.2 0 96 44.8 96 96v512c0 51.2-44.8 96-96 96zM192 224c-19.2 0-32 12.8-32 32v512c0 19.2 12.8 32 32 32h640c19.2 0 32-12.8 32-32V256c0-19.2-12.8-32-32-32H192z" p-id="4266"></path><path d="M608 409.6a1 1 0 1 0 128 0 1 1 0 1 0-128 0zM768 678.4c-57.6-44.8-83.2-32-121.6-12.8-25.6 12.8-64 25.6-115.2 19.2-64-12.8-89.6-57.6-108.8-96-12.8-25.6-25.6-51.2-51.2-64-64-32-121.6 6.4-121.6 6.4-19.2 12.8-44.8 6.4-51.2-6.4-6.4-12.8 0-38.4 12.8-44.8 6.4 0 89.6-57.6 185.6-12.8 44.8 25.6 64 57.6 83.2 89.6 19.2 32 32 57.6 70.4 64 25.6 6.4 44.8 0 70.4-12.8 44.8-19.2 96-44.8 185.6 25.6 19.2 12.8 19.2 38.4 12.8 44.8-12.8 6.4-25.6 19.2-51.2 0z" p-id="4267"></path></svg>