<?xml version="1.0" standalone="no"?><!DOCTYPE svg PUBLIC "-//W3C//DTD SVG 1.1//EN" "http://www.w3.org/Graphics/SVG/1.1/DTD/svg11.dtd"><svg t="1578231835358" class="icon" viewBox="0 0 1024 1024" version="1.1" xmlns="http://www.w3.org/2000/svg" p-id="2661" xmlns:xlink="http://www.w3.org/1999/xlink" width="200" height="200"><defs><style type="text/css"></style></defs><path d="M821.333333 691.2L512 870.4 202.666667 691.2v-57.6c21.333333-8.533333 36.266667-29.866667 36.266666-55.466667 0-32-27.733333-59.733333-59.733333-59.733333s-59.733333 27.733333-59.733333 59.733333c0 25.6 14.933333 46.933333 36.266666 55.466667v83.2l352 202.666667 4.266667 2.133333 354.133333-204.8v-153.6h-44.8v128zM868.266667 390.4v-83.2L512 102.4 157.866667 307.2v153.6h44.8v-128L512 153.6l309.333333 179.2v57.6c-21.333333 8.533333-36.266667 29.866667-36.266666 55.466667 0 32 27.733333 59.733333 59.733333 59.733333s59.733333-27.733333 59.733333-59.733333c0-25.6-14.933333-46.933333-36.266666-55.466667z" fill="#8a8a8a" p-id="2662"></path><path d="M362.666667 320c-23.466667-4.266667-42.666667 12.8-42.666667 36.266667V588.8c0 64 53.333333 117.333333 117.333333 117.333333h147.2c70.4 0 128-61.866667 119.466667-134.4-8.533333-61.866667-64-104.533333-123.733333-104.533333h-53.333334c-6.4 0-10.666667-4.266667-10.666666-10.666667v-96c0-17.066667-12.8-34.133333-29.866667-38.4-23.466667-4.266667-42.666667 12.8-42.666667 36.266667v98.133333c0 6.4-4.266667 10.666667-10.666666 10.666667h-29.866667c-6.4 0-10.666667-4.266667-10.666667-10.666667v-96c0-21.333333-12.8-38.4-29.866666-40.533333z m245.333333 234.666667c17.066667 0 29.866667 12.8 29.866667 29.866666 0 17.066667-12.8 29.866667-29.866667 29.866667-17.066667 0-29.866667-12.8-29.866667-29.866667 0-17.066667 12.8-29.866667 29.866667-29.866666z m-93.866667 0c17.066667 0 29.866667 12.8 29.866667 29.866666 0 17.066667-12.8 29.866667-29.866667 29.866667-17.066667 0-29.866667-12.8-29.866666-29.866667 0-17.066667 12.8-29.866667 29.866666-29.866666z m-98.133333 0c17.066667 0 29.866667 12.8 29.866667 29.866666 0 17.066667-12.8 29.866667-29.866667 29.866667-17.066667 0-29.866667-12.8-29.866667-29.866667 0-17.066667 12.8-29.866667 29.866667-29.866666z" fill="#8a8a8a" p-id="2663"></path></svg>