<?xml version="1.0" standalone="no"?><!DOCTYPE svg PUBLIC "-//W3C//DTD SVG 1.1//EN" "http://www.w3.org/Graphics/SVG/1.1/DTD/svg11.dtd"><svg t="1540007447751" class="icon" style="" viewBox="0 0 1024 1024" version="1.1" xmlns="http://www.w3.org/2000/svg" p-id="2762" xmlns:xlink="http://www.w3.org/1999/xlink" width="128" height="128"><defs><style type="text/css"></style></defs><path d="M996.5 287.1L567.6 68.8c-34.8-17.6-76.4-17.6-111.2 0L27.5 286.4C10.6 295 0 312.1 0 331.2c0 19 10.5 36.2 27.5 44.8l219.8 111.8v305c0 33.9 18.8 64.4 49 79.7l164.9 83.6c15.9 8.1 33.4 12.1 50.9 12.1s35-4 50.9-12.1l164.9-83.6c30.2-15.3 49-45.9 49-79.7V488.2L901.4 425v111.9c0 15.2 12.3 27.5 27.5 27.5s27.5-12.3 27.5-27.5V401.6c0-1.5-0.1-2.9-0.3-4.3l40.4-20.5c17-8.6 27.5-25.8 27.5-44.8 0-19.1-10.5-36.3-27.5-44.9zM721.8 792.9c0 13.1-7.2 24.8-18.9 30.8L538 907.3c-16.3 8.3-35.8 8.3-52.1 0L321 823.7c-11.6-5.9-18.9-17.7-18.9-30.8V515.8l154.2 78.5c17.4 8.8 36.5 13.2 55.6 13.2s38.2-4.4 55.6-13.2l154.2-78.2v276.8z m-179-247.6c-19.3 9.8-42.3 9.8-61.5 0L60.5 331.2l420.7-213.4c19.3-9.8 42.3-9.8 61.5 0l420.7 214.1-420.6 213.4z" fill="" p-id="2763"></path></svg>