<?xml version="1.0" standalone="no"?><!DOCTYPE svg PUBLIC "-//W3C//DTD SVG 1.1//EN" "http://www.w3.org/Graphics/SVG/1.1/DTD/svg11.dtd"><svg t="1578232053694" class="icon" viewBox="0 0 1024 1024" version="1.1" xmlns="http://www.w3.org/2000/svg" p-id="5011" xmlns:xlink="http://www.w3.org/1999/xlink" width="200" height="200"><defs><style type="text/css"></style></defs><path d="M1024 828.814222L845.368889 650.168889c99.285333-115.143111 94.563556-288.995556-14.663111-398.222222-57.230222-57.230222-132.224-85.831111-207.232-85.831111s-150.001778 28.615111-207.232 85.831111c-114.446222 114.446222-114.446222 300.003556 0 414.449777a292.124444 292.124444 0 0 0 207.232 85.831112c68.167111 0 136.177778-23.893333 191.004444-71.168l178.631111 178.645333L1024 828.814222z m-400.526222-120.277333a247.68 247.68 0 0 1-176.327111-73.045333c-97.223111-97.223111-97.223111-255.431111 0-352.668445a247.736889 247.736889 0 0 1 176.327111-73.045333c66.602667 0 129.237333 25.941333 176.327111 73.045333 97.223111 97.223111 97.223111 255.431111 0 352.668445a247.736889 247.736889 0 0 1-176.327111 73.045333zM0 170.282667h315.804444v43.690666H0zM0 822.414222h476.017778v43.690667H0zM0 499.029333h242.929778v43.690667H0z" p-id="5012"></path></svg>