<?xml version="1.0" standalone="no"?><!DOCTYPE svg PUBLIC "-//W3C//DTD SVG 1.1//EN" "http://www.w3.org/Graphics/SVG/1.1/DTD/svg11.dtd"><svg t="1578231931418" class="icon" viewBox="0 0 1024 1024" version="1.1" xmlns="http://www.w3.org/2000/svg" p-id="4221" xmlns:xlink="http://www.w3.org/1999/xlink" width="200" height="200"><defs><style type="text/css"></style></defs><path d="M841.5 558v-75c-57.4 53.8-190.9 91.6-346.4 91.6s-289-37.7-346.4-91.6v91.6c0 66.5 155.1 120.5 346.4 120.5 27.4 0 54.1-1.1 79.7-3.2L573 722c-25.1 2.1-51.2 3.2-77.9 3.2-155.5 0-289-37.7-346.4-91.5v91.5c0 66.5 155.1 120.5 346.4 120.5 23.1 0 30.2-1.9 52-3.4v30c-21.9 1.6-29 3.5-52 3.5-195.2 0-355.7-59.4-374.6-135.6h-1.9V273.4c0-83.2 168.6-150.6 376.5-150.6s376.5 67.4 376.5 150.6v282.1l-30.1 2.5zM495.1 152.9c-191.3 0-346.4 53.9-346.4 120.5s155.1 120.5 346.4 120.5S841.5 340 841.5 273.4 686.4 152.9 495.1 152.9z m346.4 179.6C784.1 386.3 650.6 424 495.1 424s-289-37.7-346.4-91.6V424c0 66.5 155.1 120.5 346.4 120.5S841.5 490.6 841.5 424v-91.5z m-662.7-46.4v-17.6c54.1 47.3 175.4 80.2 316.3 80.2s262.2-32.9 316.3-80.2v17.6c-61.7 46.3-180.2 77.6-316.3 77.6s-254.6-31.3-316.3-77.6z" fill="" p-id="4222"></path><path d="M803.4 875.8c-23.1 0-50.9-14.5-61.9-20.8l-8.3-4.7 34.5-119.8 14 9.9c10.4 7.3 28.3 16.1 54.5 16.1 14.4 0 30.1-2.7 46.4-8l21.8-7-33.8 118.2-5.5 2.2c-23.1 9.4-43.3 13.9-61.7 13.9zM762 838.4c13.6 6.9 29.8 13.1 41.4 13.1 13.8 0 29.2-3.3 47.1-10.1l18.3-64c-35.7 7.4-67.4 1-86.7-8.5L762 838.4z m-35.1 8.5l-10.9-7c-21.8-14-51.6-23.2-95.3-7.1l-22.7 8.4L633.2 719l5.4-2.2c17.1-7 35.1-11.5 53.4-13.2 19-1.3 35.2 2.8 53.4 12.2l0.4 0.2c3.9 2.2 7.7 4.4 11.5 6.7l4.7 2.9-35.1 121.3zM666.2 799c20 0 35.8 5.4 49 12.2l21.3-72.5c-0.8-0.5-1.6-0.9-2.4-1.3-14.1-7.2-27.2-10.3-39.9-9.4-13.9 1.3-27.6 4.5-40.8 9.4l-19 65.8c11.2-2.8 21.7-4.2 31.8-4.2z m176.7-49.2c-23.2 0-45.4-6.7-65.9-19.9l-7.5-5.3 36.2-119 12.4 8.7c10.8 7.5 28.9 16.5 53.9 16.5 14.8 0 30.5-3.2 46.8-9.5l23-8.9L908 728.8l0.2 3.5-7.7 4.2c-19.4 8.8-38.8 13.3-57.6 13.3z m-45-35.9c26 13.9 54.7 15.2 84.8 3.6l-0.1-1.4 4-1.3 18.5-63.7c-34.5 8.3-66.7 1.7-86.7-8.3l-20.5 71.1z m-33.5 6.2l-12.5-8c-12.9-8.3-27.7-16-47.8-16.2-13.8 0-29.2 3.3-47.2 10.1l-22.7 8.6L669 592.5l5.6-2.2c20.7-8.3 39.1-12.5 56.1-12.8h0.4c8.7 0 17.3 1 25.7 2.9 13.5 3.4 30.7 13 35.6 15.9l9.3 5.6-37.3 118.2z m-60.3-48.6h0.1c19 0.2 34.2 5.4 46.9 11.9l20.7-70.7c-7.2-3.7-15.2-7.3-20.9-8.7-6.3-1.5-13.1-2.2-19.8-2.2h-0.3c-12.4 0.2-26.2 3.2-41.8 8.9L670.4 676c12.1-3 23.2-4.5 33.7-4.5z" fill="#231815" p-id="4223"></path></svg>