<?xml version="1.0" standalone="no"?><!DOCTYPE svg PUBLIC "-//W3C//DTD SVG 1.1//EN" "http://www.w3.org/Graphics/SVG/1.1/DTD/svg11.dtd"><svg t="1542420708475" class="icon" style="" viewBox="0 0 1024 1024" version="1.1" xmlns="http://www.w3.org/2000/svg" p-id="5109" xmlns:xlink="http://www.w3.org/1999/xlink" width="200" height="200"><defs><style type="text/css"></style></defs><path d="M243 128.4c-63.4 0-114.6 51.4-114.6 114.6 0 63.4 51.4 114.6 114.6 114.6 63.4 0 114.6-51.4 114.6-114.6 0.2-63.4-51.2-114.6-114.6-114.6z m0 188.6c-40.8 0-74-33.2-74-74s33.2-74 74-74 74 33.2 74 74-33 74-74 74z" p-id="5110"></path><path d="M489 59.6c-20.8-23-50-35.4-81.4-35.4L193 22C147.2 22 103.4 38.6 72 72 38.6 103.4 22 147.2 22 193l2 214.8c2 29.2 12.6 58.4 35.4 81.4L572.4 1002 1002 572.4 489 59.6z m81.4 884L86.6 459.8c-14.6-14.6-23-33.4-23-54.2l-2-212.6c0-33.4 14.6-66.8 37.6-91.8 25-25 58.4-39.6 93.8-39.6l212.6 2c20.8 0 39.6 8.4 54.2 23l483.8 483.8-373.2 373.2z" p-id="5111"></path></svg>