<?xml version="1.0" standalone="no"?><!DOCTYPE svg PUBLIC "-//W3C//DTD SVG 1.1//EN" "http://www.w3.org/Graphics/SVG/1.1/DTD/svg11.dtd"><svg t="1539419306255" class="icon" style="" viewBox="0 0 1024 1024" version="1.1" xmlns="http://www.w3.org/2000/svg" p-id="4977" xmlns:xlink="http://www.w3.org/1999/xlink" width="128" height="128"><defs><style type="text/css"></style></defs><path d="M619.064182 504.57971c91.163561-42.401656 154.766046-133.565217 154.766046-239.569358C773.830228 118.724638 655.10559 0 508.819876 0S243.809524 118.724638 243.809524 265.010352c0 106.004141 63.602484 197.167702 154.766045 239.569358C169.606625 555.461698 0 758.989648 0 1002.799172v21.200828h1017.639752v-21.200828c0-243.809524-169.606625-447.337474-398.57557-498.219462zM286.21118 265.010352C286.21118 142.045549 385.855072 42.401656 508.819876 42.401656s222.608696 99.643892 222.608695 222.608696S631.784679 487.619048 508.819876 487.619048s-222.608696-99.643892-222.608696-222.608696zM42.401656 981.598344c10.600414-248.049689 216.248447-445.217391 466.41822-445.217392s455.817805 197.167702 466.418219 445.217392H42.401656z" p-id="4978"></path></svg>