<?xml version="1.0" standalone="no"?><!DOCTYPE svg PUBLIC "-//W3C//DTD SVG 1.1//EN" "http://www.w3.org/Graphics/SVG/1.1/DTD/svg11.dtd"><svg t="1607741507666" class="icon" viewBox="0 0 1090 1024" version="1.1" xmlns="http://www.w3.org/2000/svg" p-id="1393" xmlns:xlink="http://www.w3.org/1999/xlink" width="212.890625" height="200"><defs><style type="text/css"></style></defs><path d="M1022.486 20.565H67.618a61.606 61.606 0 0 0-1.709-0.022c-17.668 0-33.756 6.77-45.812 17.858C7.847 49.66 0.13 65.781 0 83.701l0.004 610.146c0.287 17.91 8.108 33.939 20.424 45.096 11.722 10.785 27.808 17.556 45.477 17.556 0.602 0 1.2-0.007 1.799-0.023l440.62 0.001v179.567H237.161a35.043 35.043 0 0 0-0.648-0.006c-19.616 0-35.569 15.684-36.007 35.196 0 19.47 16.37 35.27 36.724 35.27h615.634c0.214 0.004 0.468 0.007 0.72 0.007 19.618 0 35.572-15.687 36.008-35.198-0.435-19.592-16.388-35.278-36.008-35.278-0.252 0-0.504 0.003-0.758 0.006H581.771V756.476h440.709c0.508 0.015 1.106 0.022 1.707 0.022 17.67 0 33.758-6.77 45.811-17.86 12.235-11.24 19.948-27.33 20.1-45.222l-0.007-610.152c-0.285-17.912-8.108-33.94-20.426-45.099-11.719-10.783-27.806-17.555-45.476-17.555-0.601 0-1.202 0.008-1.8 0.025l0.097-0.07z m-5.837 667.59H73.454V91.024h943.195v597.13z" p-id="1394"></path><path d="M311.395 282.548h468.026c14.944 0 27.189-11.672 27.189-26.05-0.316-14.457-12.11-26.056-26.612-26.056-0.202 0-0.404 0.003-0.605 0.008l-467.994-0.002a27.656 27.656 0 0 0-0.576-0.006c-14.503 0-26.297 11.599-26.61 26.027-0.001 14.405 12.17 26.078 27.187 26.078h-0.005z m351.943 90.103H426.763a27.75 27.75 0 0 0-0.575-0.006c-14.503 0-26.294 11.599-26.614 26.026-0.001 14.477 12.17 26.078 27.187 26.078h236.575c14.947 0 27.19-11.601 27.19-26.047-0.317-14.457-12.112-26.055-26.615-26.055-0.204 0-0.404 0.001-0.606 0.006l0.033-0.002z" p-id="1395"></path></svg>